<svg id="Capa_1" enable-background="new 0 0 510 510" height="512" viewBox="0 0 510 510" width="512" xmlns="http://www.w3.org/2000/svg"><g id="XMLID_309_"><path id="XMLID_307_" d="m134.286 332.833-20.797 80.972v96.195h60.12v-176.539z" fill="#004381"/><path id="XMLID_338_" d="m353.489 269.995 10.13-92.046-10.13-57.949-60-60h-61.99c-14.939 0-28.2 9.56-32.92 23.72l-.59 1.78c-4.01 12.03-1.14 25.28 7.479 34.57l58.69 63.27-31.007 66.766 38.002 46.145 51.31 35.812z" fill="#ff5959"/><path id="XMLID_341_" d="m322.464 332.062-89.312-81.957-13.293 28.624-.015-.001 30.895 34.022 41.387 32.25 11.113 4.875 12.758-4.875z" fill="#e5f5ff"/><path id="XMLID_337_" d="m131.779 267.38-104.41 162.12-8.858 13.754 35.073 52.61 9.785-12.364 110.12-150.039 45.131 11.539 37.119 6.25 36.387-6.25-72.282-66.272z" fill="#0069b0"/><path id="XMLID_306_" d="m248.62 405v-30h104.999l10-15.083-10-14.917h-134.999v165h30v-75h104.999l10-17-10-13z" fill="#00d7ff"/><path id="XMLID_305_" d="m368.62 239.757v105.243h-15.001v30h15.001v30h-15.001v30h15.001v75h30c0-15.367 0-278.101 0-299.396 0-.23-28.001-.772-28.001-.772z" fill="#00b0f4"/><path id="XMLID_310_" d="m486.889 137.64c-2.959-5.17-7.26-9.58-12.58-12.689l-56.749-33.181-9.937-5.865-54.134 34.095v149.995l26.64-53.295 87.52-28.851c14.23-4.68 23.841-17.97 23.841-32.949-.001-6.16-1.64-12.09-4.601-17.26z" fill="#ff3757"/><g id="XMLID_250_"><path id="XMLID_249_" d="m293.489 60c0 33.137 26.863 60 60 60l10-62.333-10-57.667c-33.136 0-60 26.863-60 60z" fill="#ffdbcc"/><path id="XMLID_246_" d="m353.489 0v120c33.137 0 60-26.863 60-60s-26.863-60-60-60z" fill="#fdbba7"/></g></g></svg>