<?xml version="1.0" encoding="UTF-8" standalone="no"?>
<!-- Created with Inkscape (http://www.inkscape.org/) -->

<svg
   version="1.1"
   id="svg3069"
   xml:space="preserve"
   width="682.66669"
   height="682.66669"
   viewBox="0 0 682.66669 682.66669"
   xmlns="http://www.w3.org/2000/svg"
   xmlns:svg="http://www.w3.org/2000/svg"><defs
     id="defs3073"><clipPath
       clipPathUnits="userSpaceOnUse"
       id="clipPath3083"><path
         d="M 0,512 H 512 V 0 H 0 Z"
         id="path3081" /></clipPath></defs><g
     id="g3075"
     transform="matrix(1.3333333,0,0,-1.3333333,0,682.66667)"><g
       id="g3077"><g
         id="g3079"
         clip-path="url(#clipPath3083)"><g
           id="g3085"
           transform="translate(7.5,425.0273)"><path
             d="m 0,0 c 0,44.281 36.216,80.104 80.643,79.464 43.035,-0.619 78.028,-35.912 78.3,-78.95 0.153,-24.103 -10.427,-45.735 -27.24,-60.407 -1.774,-1.548 -1.518,-4.375 0.508,-5.573 l 14.975,-8.861 c 2.42,-1.432 1.405,-5.144 -1.409,-5.143 l -67.809,0.017 C 34.771,-78.65 0,-43.388 0,0"
             style="fill:#7acaa6;fill-opacity:1;fill-rule:nonzero;stroke:none"
             id="path3087" /></g><g
           id="g3089"
           transform="translate(154.6855,350.7007)"><path
             d="m 0,0 -14.975,8.86 c -2.015,1.193 -2.296,4.015 -0.53,5.554 17.004,14.829 27.64,36.775 27.254,61.197 -0.667,42.245 -34.858,76.923 -77.091,78.154 -5.989,0.174 -11.834,-0.316 -17.468,-1.399 36.505,-6.998 64.326,-39.175 64.568,-77.526 0.117,-18.572 -6.139,-35.678 -16.708,-49.264 -6.382,-8.203 -4.308,-20.098 4.638,-25.391 L -30,0 c 2.395,-1.417 1.424,-5.057 -1.319,-5.136 L -1.408,-5.144 C 1.405,-5.144 2.421,-1.433 0,0"
             style="fill:#57be92;fill-opacity:1;fill-rule:nonzero;stroke:none"
             id="path3091" /></g><g
           id="g3093"
           transform="translate(394.7295,216.0337)"><path
             d="m 0,0 h -180.285 c -45.029,0 -69.67,52.476 -40.911,87.125 l 1.599,1.926 c 12.67,15.264 19.605,34.478 19.605,54.315 v 34.767 c 0,60.935 49.398,110.333 110.334,110.333 60.935,0 110.334,-49.398 110.334,-110.333 v -35.94 c 0,-20.045 7.081,-39.446 19.992,-54.779 C 69.787,52.836 45.206,0 0,0"
             style="fill:#c59191;fill-opacity:1;fill-rule:nonzero;stroke:none"
             id="path3095" /></g><g
           id="g3097"
           transform="translate(489.5,7.5)"><path
             d="m 0,0 v 119.186 c 0,26.325 -15.519,50.176 -39.587,60.841 l -80.749,34.61 c -15.358,6.583 -25.315,21.684 -25.315,38.393 v 7.315 h -78.524 v -7.713 c 0,-16.63 -9.864,-31.676 -25.115,-38.307 l -79.804,-34.697 c -24.681,-10.388 -40.732,-34.557 -40.732,-61.336 V 0"
             style="fill:#ffffff;fill-opacity:1;fill-rule:nonzero;stroke:none"
             id="path3099" /></g><g
           id="g3101"
           transform="translate(220.0996,184.665)"><path
             d="m 0,0 c 20.375,-6.088 50.367,-12.582 86.924,-11.943 34.302,0.599 62.459,7.269 82.051,13.526 l 9.735,23.183 -29.646,12.706 c -15.358,6.583 -25.315,21.684 -25.315,38.393 V 83.18 H 45.227 V 75.467 C 45.227,58.837 35.361,43.791 20.11,37.16 L -3.9,26.721 Z"
             style="fill:#ffcebf;fill-opacity:1;fill-rule:nonzero;stroke:none"
             id="path3103" /></g><g
           id="g3105"
           transform="translate(449.9131,187.5269)"><path
             d="M 0,0 -60.827,26.071 -60.838,26.07 V -180.027 H 39.587 V -60.841 C 39.587,-34.516 24.068,-10.665 0,0"
             style="fill:#8795de;fill-opacity:1;fill-rule:nonzero;stroke:none"
             id="path3107" /></g><g
           id="g3109"
           transform="translate(159.2607,187.5269)"><path
             d="M 0,0 60.828,26.071 60.839,26.07 V -180.027 H -39.587 V -60.841 C -39.587,-34.516 -24.068,-10.665 0,0"
             style="fill:#8795de;fill-opacity:1;fill-rule:nonzero;stroke:none"
             id="path3111" /></g><g
           id="g3113"
           transform="translate(326.8945,283.8408)"><path
             d="m 0,0 h -17.576 c -8,0 -14.486,6.485 -14.486,14.485 0,8 6.486,14.486 14.486,14.486 H 0 c 8,0 14.485,-6.486 14.485,-14.486 C 14.485,6.485 8,0 0,0"
             style="fill:#ffffff;fill-opacity:1;fill-rule:nonzero;stroke:none"
             id="path3115" /></g><g
           id="g3117"
           transform="translate(326.8945,283.8408)"><path
             d="m 0,0 h -17.576 c -8,0 -14.486,6.485 -14.486,14.485 0,8 6.486,14.486 14.486,14.486 H 0 c 8,0 14.485,-6.486 14.485,-14.486 C 14.485,6.485 8,0 0,0 Z"
             style="fill:none;stroke:#000000;stroke-width:15;stroke-linecap:round;stroke-linejoin:round;stroke-miterlimit:10;stroke-dasharray:none;stroke-opacity:1"
             id="path3119" /></g><g
           id="g3121"
           transform="translate(311.8301,131.2627)"><path
             d="m 0,0 c 0,-4 -3.243,-7.243 -7.243,-7.243 -4,0 -7.242,3.243 -7.242,7.243 0,4 3.242,7.243 7.242,7.243 C -3.243,7.243 0,4 0,0"
             style="fill:#000000;fill-opacity:1;fill-rule:nonzero;stroke:none"
             id="path3123" /></g><g
           id="g3125"
           transform="translate(331.8057,224.7471)"><path
             d="M 0,0 C 9.034,0 17.642,1.814 25.489,5.088 17.072,12.857 12.043,23.913 12.043,35.783 v 7.315 h -78.522 v -7.713 c 0,-6.008 -1.294,-11.806 -3.659,-17.078 C -58.247,6.973 -42.161,0 -24.437,0 Z"
             style="fill:#ffb09e;fill-opacity:1;fill-rule:nonzero;stroke:none"
             id="path3127" /></g><g
           id="g3129"
           transform="translate(383.0684,385.9687)"><path
             d="m 0,0 v -64.959 c 0,-36.596 -29.667,-66.263 -66.263,-66.263 H -90.7 c -36.596,0 -66.262,29.667 -66.262,66.263 V 0 c 0,23.807 19.299,43.107 43.107,43.107 h 70.748 C -19.3,43.107 0,23.807 0,0"
             style="fill:#ffcebf;fill-opacity:1;fill-rule:nonzero;stroke:none"
             id="path3131" /></g><g
           id="g3133"
           transform="translate(326.8945,283.8408)"><path
             d="m 0,0 h -17.576 c -8,0 -14.486,6.485 -14.486,14.485 0,8 6.486,14.486 14.486,14.486 H 0 c 8,0 14.485,-6.486 14.485,-14.486 C 14.485,6.485 8,0 0,0"
             style="fill:#685e68;fill-opacity:1;fill-rule:nonzero;stroke:none"
             id="path3135" /></g><g
           id="g3137"
           transform="translate(320.2461,446.2686)"><path
             d="M 0,0 C 1.683,21.225 22.003,35.311 41.45,42.605 73.622,23.329 95.159,-11.87 95.159,-52.102 v -7.586 c -1.779,-0.373 -3.549,-0.7 -5.298,-0.961 -10.714,-1.6 -19.838,-0.908 -26.07,0 C 23.625,-55.298 -2.032,-25.634 0,0"
             style="fill:#b98080;fill-opacity:1;fill-rule:nonzero;stroke:none"
             id="path3139" /></g><g
           id="g3141"
           transform="translate(305.0713,504.5)"><path
             d="M 0,0 V 0 C 24.918,0 47.903,-8.264 66.374,-22.195 57.16,-38.228 36.003,-69.926 -3.671,-93.394 c -29.452,-17.421 -57.223,-23.275 -74.325,-25.486 h -32.338 v 8.547 C -110.334,-49.398 -60.936,0 0,0"
             style="fill:#c59191;fill-opacity:1;fill-rule:nonzero;stroke:none"
             id="path3143" /></g><g
           id="g3145"
           transform="translate(428.4082,7.5)"><path
             d="m 0,0 h -240.085 l -13.242,124.918 c -0.94,8.861 6.006,16.582 14.916,16.582 H -1.674 c 8.91,0 15.856,-7.721 14.916,-16.582 z"
             style="fill:#efedef;fill-opacity:1;fill-rule:nonzero;stroke:none"
             id="path3147" /></g><g
           id="g3149"
           transform="translate(426.7344,148.9995)"><path
             d="m 0,0 h -30 c 8.91,0 15.855,-7.721 14.916,-16.581 L -28.326,-141.5 h 30 L 14.916,-16.581 C 15.855,-7.721 8.91,0 0,0"
             style="fill:#e5e1e5;fill-opacity:1;fill-rule:nonzero;stroke:none"
             id="path3151" /></g><g
           id="g3153"
           transform="translate(504.5)"><path
             d="m 0,0 h -497 c -4.143,0 -7.5,3.358 -7.5,7.5 0,4.142 3.357,7.5 7.5,7.5 H 0 C 4.143,15 7.5,11.642 7.5,7.5 7.5,3.358 4.143,0 0,0"
             style="fill:#c9bfc8;fill-opacity:1;fill-rule:nonzero;stroke:none"
             id="path3155" /></g><g
           id="g3157"
           transform="translate(329.3652,78.25)"><path
             d="m 0,0 c 0,-11.598 -9.401,-21 -21,-21 -11.598,0 -21,9.402 -21,21 0,11.598 9.402,21 21,21 C -9.401,21 0,11.598 0,0"
             style="fill:#c9bfc8;fill-opacity:1;fill-rule:nonzero;stroke:none"
             id="path3159" /></g><g
           id="g3161"
           transform="translate(7.5,425.0273)"><path
             d="m 0,0 c 0,44.281 36.216,80.104 80.643,79.464 43.035,-0.619 78.028,-35.912 78.3,-78.95 0.153,-24.103 -10.427,-45.735 -27.24,-60.407 -1.774,-1.548 -1.518,-4.375 0.508,-5.573 l 14.975,-8.861 c 2.42,-1.432 1.405,-5.144 -1.409,-5.143 l -67.809,0.017 C 34.771,-78.65 0,-43.388 0,0 Z"
             style="fill:none;stroke:#000000;stroke-width:15;stroke-linecap:round;stroke-linejoin:round;stroke-miterlimit:10;stroke-dasharray:none;stroke-opacity:1"
             id="path3163" /></g><g
           id="g3165"
           transform="translate(383.4199,216.0298)"><path
             d="m 0,0 h 11.311 c 31.71,0 53.269,26 53.269,53.45 0,11.69 -3.91,23.64 -12.6,33.97 -12.91,15.33 -19.99,34.73 -19.99,54.78 v 35.94 c 0,30.47 -12.35,58.05 -32.32,78.01 -19.97,19.97 -47.55,32.32 -78.02,32.32 -60.93,0 -110.33,-49.4 -110.33,-110.33 v -34.77 c 0,-19.84 -6.94,-39.05 -19.61,-54.32 l -1.6,-1.92 C -238.65,52.48 -214,0 -168.979,0 h 12.429"
             style="fill:none;stroke:#000000;stroke-width:15;stroke-linecap:round;stroke-linejoin:round;stroke-miterlimit:10;stroke-dasharray:none;stroke-opacity:1"
             id="path3167" /></g><g
           id="g3169"
           transform="translate(119.6699,37.5)"><path
             d="m 0,0 v 88.29 c 0,26.78 16.05,50.95 40.74,61.34 l 66.46,28.9 13.34,5.8 c 15.25,6.63 25.12,21.67 25.12,38.3 V 223"
             style="fill:none;stroke:#000000;stroke-width:15;stroke-linecap:round;stroke-linejoin:round;stroke-miterlimit:10;stroke-dasharray:none;stroke-opacity:1"
             id="path3171" /></g><g
           id="g3173"
           transform="translate(343.8496,260.5)"><path
             d="m 0,0 c 0.011,-16.7 9.971,-31.78 25.311,-38.36 l 14.259,-6.11 66.491,-28.5 c 24.07,-10.67 39.589,-34.52 39.589,-60.84 V -253"
             style="fill:none;stroke:#000000;stroke-width:15;stroke-linecap:round;stroke-linejoin:round;stroke-miterlimit:10;stroke-dasharray:none;stroke-opacity:1"
             id="path3175" /></g><g
           id="g3177"
           transform="translate(389.0703,149)"><path
             d="M 0,0 V 64.6"
             style="fill:none;stroke:#000000;stroke-width:15;stroke-linecap:round;stroke-linejoin:round;stroke-miterlimit:10;stroke-dasharray:none;stroke-opacity:1"
             id="path3179" /></g><g
           id="g3181"
           transform="translate(220.0996,149)"><path
             d="M 0,0 V 64.08"
             style="fill:none;stroke:#000000;stroke-width:15;stroke-linecap:round;stroke-linejoin:round;stroke-miterlimit:10;stroke-dasharray:none;stroke-opacity:1"
             id="path3183" /></g><g
           id="g3185"
           transform="translate(220.0996,184.665)"><path
             d="m 0,0 c 20.375,-6.088 50.367,-12.582 86.924,-11.943 34.302,0.599 62.459,7.27 82.052,13.526"
             style="fill:none;stroke:#000000;stroke-width:15;stroke-linecap:round;stroke-linejoin:round;stroke-miterlimit:10;stroke-dasharray:none;stroke-opacity:1"
             id="path3187" /></g><g
           id="g3189"
           transform="translate(383.0703,385.7598)"><path
             d="m 0,0 v -64.75 c 0,-36.6 -29.67,-66.26 -66.261,-66.26 H -90.7 c -36.601,0 -66.26,29.66 -66.26,66.26 v 64.61"
             style="fill:none;stroke:#000000;stroke-width:15;stroke-linecap:round;stroke-linejoin:round;stroke-miterlimit:10;stroke-dasharray:none;stroke-opacity:1"
             id="path3191" /></g><g
           id="g3193"
           transform="translate(383.0684,337.1719)"><path
             d="m 0,0 c -2.29,-5.821 -7.679,-17.162 -19.387,-26.82 -8.416,-6.942 -16.841,-10.328 -22.301,-12.026"
             style="fill:none;stroke:#000000;stroke-width:15;stroke-linecap:round;stroke-linejoin:round;stroke-miterlimit:10;stroke-dasharray:none;stroke-opacity:1"
             id="path3195" /></g><g
           id="g3197"
           transform="translate(326.8945,283.8408)"><path
             d="m 0,0 h -17.576 c -8,0 -14.486,6.485 -14.486,14.485 0,8 6.486,14.486 14.486,14.486 H 0 c 8,0 14.485,-6.486 14.485,-14.486 C 14.485,6.485 8,0 0,0 Z"
             style="fill:none;stroke:#000000;stroke-width:15;stroke-linecap:round;stroke-linejoin:round;stroke-miterlimit:10;stroke-dasharray:none;stroke-opacity:1"
             id="path3199" /></g><g
           id="g3201"
           transform="translate(343.3262,402.1406)"><path
             d="m 0,0 c 10.408,-8.064 23.928,-14.112 39.744,-16.381 0.319,-0.05 0.64,-0.099 0.97,-0.14 6.229,-0.91 15.349,-1.6 26.07,0 1.75,0.26 3.52,0.59 5.3,0.96"
             style="fill:none;stroke:#000000;stroke-width:15;stroke-linecap:round;stroke-linejoin:round;stroke-miterlimit:10;stroke-dasharray:none;stroke-opacity:1"
             id="path3203" /></g><g
           id="g3205"
           transform="translate(371.4453,482.3052)"><path
             d="m 0,0 c -9.214,-16.033 -30.371,-47.731 -70.045,-71.199 -29.452,-17.422 -57.223,-23.276 -74.325,-25.487 h -32.338"
             style="fill:none;stroke:#000000;stroke-width:15;stroke-linecap:round;stroke-linejoin:round;stroke-miterlimit:10;stroke-dasharray:none;stroke-opacity:1"
             id="path3207" /></g><g
           id="g3209"
           transform="translate(188.3232,7.5)"><path
             d="m 0,0 -13.242,124.918 c -0.94,8.861 6.006,16.582 14.916,16.582 h 236.737 c 8.91,0 15.856,-7.721 14.916,-16.582 L 240.085,0"
             style="fill:none;stroke:#000000;stroke-width:15;stroke-linecap:round;stroke-linejoin:round;stroke-miterlimit:10;stroke-dasharray:none;stroke-opacity:1"
             id="path3211" /></g><g
           id="g3213"
           transform="translate(7.5,7.5)"><path
             d="M 0,0 H 497"
             style="fill:none;stroke:#000000;stroke-width:15;stroke-linecap:round;stroke-linejoin:round;stroke-miterlimit:10;stroke-dasharray:none;stroke-opacity:1"
             id="path3215" /></g><g
           id="g3217"
           transform="translate(329.3652,78.25)"><path
             d="m 0,0 c 0,-11.598 -9.401,-21 -21,-21 -11.598,0 -21,9.402 -21,21 0,11.598 9.402,21 21,21 C -9.401,21 0,11.598 0,0 Z"
             style="fill:none;stroke:#000000;stroke-width:15;stroke-linecap:round;stroke-linejoin:round;stroke-miterlimit:10;stroke-dasharray:none;stroke-opacity:1"
             id="path3219" /></g><g
           id="g3221"
           transform="translate(64.4727,425.0288)"><path
             d="m 0,0 c 0,-4.142 -3.358,-7.5 -7.5,-7.5 -4.143,0 -7.5,3.358 -7.5,7.5 0,4.142 3.357,7.5 7.5,7.5 C -3.358,7.5 0,4.142 0,0"
             style="fill:#000000;fill-opacity:1;fill-rule:nonzero;stroke:none"
             id="path3223" /></g><g
           id="g3225"
           transform="translate(94.4727,425.0288)"><path
             d="m 0,0 c 0,-4.142 -3.358,-7.5 -7.5,-7.5 -4.143,0 -7.5,3.358 -7.5,7.5 0,4.142 3.357,7.5 7.5,7.5 C -3.358,7.5 0,4.142 0,0"
             style="fill:#000000;fill-opacity:1;fill-rule:nonzero;stroke:none"
             id="path3227" /></g><g
           id="g3229"
           transform="translate(124.4727,425.0288)"><path
             d="m 0,0 c 0,-4.142 -3.358,-7.5 -7.5,-7.5 -4.143,0 -7.5,3.358 -7.5,7.5 0,4.142 3.357,7.5 7.5,7.5 C -3.358,7.5 0,4.142 0,0"
             style="fill:#000000;fill-opacity:1;fill-rule:nonzero;stroke:none"
             id="path3231" /></g></g></g></g></svg>
