<svg id="Layer_1" enable-background="new 0 0 512 512" height="512" viewBox="0 0 512 512" width="512" xmlns="http://www.w3.org/2000/svg" xmlns:xlink="http://www.w3.org/1999/xlink"><linearGradient id="SVGID_1_" gradientUnits="userSpaceOnUse" x1="76.178" x2="435.822" y1="467.822" y2="108.178"><stop offset="0" stop-color="#ec2aff"/><stop offset="1" stop-color="#6ac6ff"/></linearGradient><path clip-rule="evenodd" d="m414.015 348.069 49.889 86.41c2.135 3.698-1.021 8.192-5.225 7.438l-73.763-13.229-25.425 70.494c-1.449 4.018-6.919 4.504-9.055.805l-49.87-86.378c44.574-9.496 83.988-32.931 113.449-65.54zm-158.015-338.569c-108.192 0-195.899 87.707-195.899 195.898 0 108.192 87.707 195.898 195.898 195.898 108.192 0 195.898-87.706 195.898-195.898.001-108.191-87.705-195.898-195.897-195.898zm0 48.014c-81.673 0-147.885 66.213-147.885 147.885 0 81.674 66.212 147.886 147.885 147.886 81.674 0 147.885-66.212 147.885-147.886-.001-81.672-66.213-147.885-147.885-147.885zm0 17c72.287 0 130.885 58.598 130.885 130.885 0 72.288-58.597 130.886-130.885 130.886-72.287 0-130.885-58.598-130.885-130.886s58.597-130.885 130.885-130.885zm54.039 72.049c6.682-6.682 17.515-6.682 24.196 0s6.682 17.515 0 24.196l-93.476 93.476c-7.566 7.566-20.07 6.379-26.142-2.32l-38.154-48.015c-5.868-7.383-4.642-18.126 2.741-23.996 7.382-5.869 18.126-4.642 23.995 2.741l26.902 33.854zm-98.606 267.047-49.87 86.379c-2.136 3.698-7.605 3.212-9.055-.806l-25.426-70.494-73.761 13.229c-4.204.754-7.36-3.74-5.226-7.438l49.889-86.41c29.464 32.606 68.875 56.045 113.449 65.54z" fill="url(#SVGID_1_)" fill-rule="evenodd"/></svg>